<?xml version="1.0" encoding="utf-8"?>
<!-- Generator: Adobe Illustrator 23.0.1, SVG Export Plug-In . SVG Version: 6.00 Build 0)  -->
<!DOCTYPE svg PUBLIC "-//W3C//DTD SVG 1.1//EN" "http://www.w3.org/Graphics/SVG/1.1/DTD/svg11.dtd" [
	<!ENTITY ns_extend "http://ns.adobe.com/Extensibility/1.0/">
	<!ENTITY ns_ai "http://ns.adobe.com/AdobeIllustrator/10.0/">
	<!ENTITY ns_graphs "http://ns.adobe.com/Graphs/1.0/">
	<!ENTITY ns_vars "http://ns.adobe.com/Variables/1.0/">
	<!ENTITY ns_imrep "http://ns.adobe.com/ImageReplacement/1.0/">
	<!ENTITY ns_sfw "http://ns.adobe.com/SaveForWeb/1.0/">
	<!ENTITY ns_custom "http://ns.adobe.com/GenericCustomNamespace/1.0/">
	<!ENTITY ns_adobe_xpath "http://ns.adobe.com/XPath/1.0/">
]>
<svg version="1.1"
	 id="svg2" xmlns:x="&ns_extend;" xmlns:i="&ns_ai;" xmlns:graph="&ns_graphs;" inkscape:version="0.91 r13725" sodipodi:docname="Microsoft_Office_2013_logo_and_wordmark.svg" xmlns:cc="http://creativecommons.org/ns#" xmlns:dc="http://purl.org/dc/elements/1.1/" xmlns:inkscape="http://www.inkscape.org/namespaces/inkscape" xmlns:rdf="http://www.w3.org/1999/02/22-rdf-syntax-ns#" xmlns:sodipodi="http://sodipodi.sourceforge.net/DTD/sodipodi-0.dtd" xmlns:svg="http://www.w3.org/2000/svg"
	 xmlns="http://www.w3.org/2000/svg" xmlns:xlink="http://www.w3.org/1999/xlink" x="0px" y="0px" viewBox="0 0 8192 3559.1"
	 style="enable-background:new 0 0 8192 3559.1;" xml:space="preserve">
<style type="text/css">
	.st0{fill:#EB3C00;}
	.st1{fill:#FFFFFF;}
	.st2{fill:#217346;}
	.st3{fill-rule:evenodd;clip-rule:evenodd;fill:#217346;}
	.st4{fill:#2B579A;}
	.st5{fill-rule:evenodd;clip-rule:evenodd;fill:#2B579A;}
	.st6{fill:#A4373A;}
	.st7{fill-rule:evenodd;clip-rule:evenodd;fill:#FFFFFF;}
	.st8{fill:#6A3889;}
	.st9{fill-rule:evenodd;clip-rule:evenodd;fill:#6A3889;}
	.st10{fill:#813A7C;}
	.st11{fill-rule:evenodd;clip-rule:evenodd;fill:#80397B;}
	.st12{fill:#067265;}
	.st13{fill-rule:evenodd;clip-rule:evenodd;fill:#067265;}
	.st14{fill:#0069B3;}
	.st15{fill:#D24726;}
	.st16{fill-rule:evenodd;clip-rule:evenodd;fill:#D24726;}
	.st17{fill:#0072C6;}
	.st18{fill-rule:evenodd;clip-rule:evenodd;fill:#0072C6;}
</style>
<metadata  id="metadata28">
	<rdf:RDF>
		<cc:Work  rdf:about="">
			<dc:format>image/svg+xml</dc:format>
			<dc:type  rdf:resource="http://purl.org/dc/dcmitype/StillImage"></dc:type>
			<dc:title>Microsoft Office logos</dc:title>
			<cc:license  rdf:resource="http://scripts.sil.org/OFL"></cc:license>
		</cc:Work>
		<cc:License  rdf:about="http://scripts.sil.org/OFL">
			<cc:permits  rdf:resource="http://scripts.sil.org/pub/OFL/Reproduction"></cc:permits>
			<cc:permits  rdf:resource="http://scripts.sil.org/pub/OFL/Distribution"></cc:permits>
			<cc:permits  rdf:resource="http://scripts.sil.org/pub/OFL/Embedding"></cc:permits>
			<cc:permits  rdf:resource="http://scripts.sil.org/pub/OFL/DerivativeWorks"></cc:permits>
			<cc:requires  rdf:resource="http://scripts.sil.org/pub/OFL/Notice"></cc:requires>
			<cc:requires  rdf:resource="http://scripts.sil.org/pub/OFL/Attribution"></cc:requires>
			<cc:requires  rdf:resource="http://scripts.sil.org/pub/OFL/ShareAlike"></cc:requires>
			<cc:requires  rdf:resource="http://scripts.sil.org/pub/OFL/DerivativeRenaming"></cc:requires>
			<cc:requires  rdf:resource="http://scripts.sil.org/pub/OFL/BundlingWhenSelling"></cc:requires>
		</cc:License>
	</rdf:RDF>
	<sfw  xmlns="&ns_sfw;">
		<slices></slices>
		<sliceSourceBounds  bottomLeftOrigin="true" height="3559.1" width="8192" x="0" y="356.3"></sliceSourceBounds>
	</sfw>
</metadata>
<g id="g4" transform="matrix(0.47823591,0,0,0.46153107,-101.58783,-251.74932)">
	<g id="g6" transform="matrix(1.8232952,0,0,1.8232952,-597.71681,-124.12247)">
		<g id="g8" transform="translate(0,-91.137241)">
			<g id="g10" transform="matrix(0.74069815,0,0,0.74069815,98.5698,-8.2505871)">
				<path id="path12" inkscape:connector-curvature="0" class="st0" d="M466.8,3887.5V1432.6L2638.5,630l1180.2,377.7v3304.8
					l-1180.2,355.8L466.8,3887.5l2171.7,261.3V1291l-1416.4,330.5v1935.6L466.8,3887.5z"/>
				<path id="path14" inkscape:connector-curvature="0" class="st0" d="M6131.6,3904.8c-341.8,0-615.6-112.7-821.3-337.9
					c-205.7-225.3-308.5-518.4-308.5-879.3c0-387.8,104.8-697.2,314.4-928c209.6-230.9,494.9-346.3,855.7-346.3
					c332.9,0,601,112.1,804.5,336.3c203.4,224.1,305.1,517.3,305.1,879.3c0,393.4-104.2,704.4-312.7,933.1
					C6760.5,3790.5,6481.4,3904.8,6131.6,3904.8L6131.6,3904.8z M6151.8,1668.7c-253.3,0-459,91.3-617,274
					c-158.1,182.7-237,422.6-237,719.6s77.1,536.1,231.2,717.1s355,271.5,602.7,271.5c264.5,0,473-86.3,625.4-258.9
					c152.5-172.6,228.7-414.1,228.7-724.6c0-318.3-74-564.3-221.9-738C6615.8,1755.5,6411.9,1668.7,6151.8,1668.7L6151.8,1668.7z"/>
				<path id="path16" inkscape:connector-curvature="0" class="st0" d="M8286.2,1278.5c-155.8,0-285.2,53-389.5,157.9
					c-104.2,104.8-156.4,247.4-156.4,427.8v278.9h-293.6v236.1h293.6v1485.7h274.4V2379h671.3v1485.7h274.4V2379h402.7V2143h-402.7
					v-265.6c0-243.2,96.4-364.4,289.2-364.4c68.3,0,129.1,14,183,44.2v-247.8c-49.3-20.1-115.1-30.9-199.2-30.9
					c-155.8,0-286.8,53-391,157.9c-104.2,104.8-156.4,247.4-156.4,427.8v278.9h-671.3v-265.6c0-243.2,96.4-364.4,289.2-364.4
					c68.3,0,129.1,14,183,44.2v-247.9C8437.6,1289.3,8370.3,1278.5,8286.2,1278.5L8286.2,1278.5z"/>
				<path id="path18" inkscape:connector-curvature="0" class="st0" d="M9764.2,1705.4c-49.3,0-91.3-16.8-126.1-50.5
					c-34.7-33.6-52.1-76.2-52.1-127.7c0-51.6,17.4-94.5,52.1-128.6c34.7-34.2,76.8-51.3,126.1-51.3c50.5,0,93.3,17.1,128.6,51.3
					c35.3,34.2,53,77.1,53,128.6c0,49.3-17.7,91.3-53,126.1C9857.5,1688.1,9814.7,1705.4,9764.2,1705.4L9764.2,1705.4z
					 M9898.7,3864.2H9623V2142.6h275.7V3864.2z"/>
				<path id="path20" inkscape:connector-curvature="0" class="st0" d="M11465.1,3785.1c-132.3,79.6-289.2,119.4-470.8,119.4
					c-245.5,0-443.5-79.9-594.3-239.5c-150.8-159.7-226.2-366.8-226.2-621.3c0-283.5,81.2-511.4,243.8-683.4
					c162.5-172.1,379.4-258.1,650.7-258.1c151.3,0,284.7,28,400.1,84.1v282.4c-127.7-89.6-264.5-134.5-410.2-134.5
					c-175.9,0-320.3,63-432.9,189.2c-112.7,126.1-168.9,291.7-168.9,496.8c0,201.7,53,360.9,158.9,477.5
					c105.9,116.5,248,174.8,426.2,174.8c150.2,0,291.4-49.9,423.7-149.6L11465.1,3785.1z"/>
				<path id="path22" inkscape:connector-curvature="0" class="st0" d="M13150.5,3072.4H11935c4.5,191.7,56,339.6,154.7,443.9
					s234.2,156.4,406.9,156.4c193.9,0,372.1-63.9,534.6-191.7v258.9c-151.3,109.9-351.4,164.7-600.2,164.7
					c-243.2,0-434.3-78.2-573.3-234.5c-139-156.4-208.5-376.3-208.5-659.9c0-267.9,75.9-486.2,227.8-654.9
					c151.8-168.7,340.4-253,565.7-253c225.3,0,399.6,72.9,522.8,218.6c123.3,145.7,184.9,348,184.9,606.9L13150.5,3072.4z
					 M12868.1,2838.7c-1.1-159.2-39.5-283-115.2-371.6c-75.7-88.6-180.7-132.8-315.2-132.8c-130,0-240.4,46.5-331.2,139.5
					c-90.8,93-146.8,214.6-168.1,364.8L12868.1,2838.7z"/>
			</g>
		</g>
	</g>
</g>
<g id="_48">
	<rect x="1359.7" y="2885.9" class="st1" width="355.3" height="542.2"/>
	<path class="st2" d="M1714.9,2885.9v542.2h-355.3v-542.2H1714.9 M1714.9,2848.5h-355.3c-20.7,0-37.4,16.7-37.4,37.4v542.2
		c0,20.7,16.7,37.4,37.4,37.4h355.3c20.7,0,37.4-16.7,37.4-37.4v-542.2C1752.3,2865.2,1735.6,2848.5,1714.9,2848.5z"/>
	<rect x="1527.9" y="2942" class="st2" width="130.9" height="56.1"/>
	<rect x="1527.9" y="3035.5" class="st2" width="130.9" height="56.1"/>
	<rect x="1527.9" y="3129" class="st2" width="130.9" height="56.1"/>
	<rect x="1527.9" y="3222.5" class="st2" width="130.9" height="56.1"/>
	<rect x="1527.9" y="3316" class="st2" width="130.9" height="56.1"/>
	<rect x="1359.7" y="2942" class="st2" width="130.9" height="56.1"/>
	<rect x="1359.7" y="3035.5" class="st2" width="130.9" height="56.1"/>
	<rect x="1359.7" y="3129" class="st2" width="130.9" height="56.1"/>
	<rect x="1359.7" y="3222.5" class="st2" width="130.9" height="56.1"/>
	<rect x="1359.7" y="3316" class="st2" width="130.9" height="56.1"/>
	<path class="st3" d="M1434.4,2773.7L967,2855.6v621.5l467.5,81.9V2773.7z"/>
	<path class="st1" d="M1300.9,2998.1l-65.3,3.9l-39.8,93.5l-2.6,8.4l-1.9,6.4l-1.7,6.2l-1.3,5l0,0c0-2.5-0.6-4.9-1.7-7.1l-1.7-6.5
		l-1.9-6.2l-2.1-5.6l-34.2-88.8l-63,3.9l67.1,145.5l-74.2,145.5l61.5,3.7l41.3-95.4l1.9-6.5l1.5-5.8l1.3-4.9v-3.9l0,0l1.3,6.9
		l1.3,5.8l1.1,4.5l1.1,3.2l43,101.7l71.4,4.5l-80.4-160.2L1300.9,2998.1"/>
</g>
<g id="Word_48">
	<path class="st1" d="M448.8,2867.2h355.3c10.3,0,18.7,8.4,18.7,18.7v561c0,10.3-8.4,18.7-18.7,18.7H448.8
		c-10.3,0-18.7-8.4-18.7-18.7v-561C430.1,2875.5,438.4,2867.2,448.8,2867.2z"/>
	<path class="st4" d="M804.1,2885.9v561H448.8v-561H804.1 M804.1,2848.5H448.8c-20.7,0-37.4,16.7-37.4,37.4v561
		c0,20.7,16.7,37.4,37.4,37.4h355.3c20.7,0,37.4-16.7,37.4-37.4v-561C841.5,2865.2,824.7,2848.5,804.1,2848.5z"/>
	<rect x="504.9" y="2960.7" class="st4" width="224.4" height="37.4"/>
	<rect x="504.9" y="3035.5" class="st4" width="224.4" height="37.4"/>
	<rect x="504.9" y="3110.3" class="st4" width="224.4" height="37.4"/>
	<rect x="504.9" y="3185.1" class="st4" width="224.4" height="37.4"/>
	<rect x="504.9" y="3259.9" class="st4" width="224.4" height="37.4"/>
	<rect x="504.9" y="3334.7" class="st4" width="224.4" height="37.4"/>
	<path class="st5" d="M523.6,2773.7l-467.5,81.9v621.6l467.5,81.9V2773.7z"/>
	<path class="st1" d="M430.1,3035.5l-54,3.4l-31.6,183.6c0,2.4,0,4.9-1.3,7.5s0,5-0.9,7.5c-0.9,2.4,0,5,0,7.7s0,5.2,0,7.9l0,0
		c0-3.2,0-6.3,0-9.2c0-2.8,0-5.4,0-8c0-2.6,0-4.7,0-6.7c0-2.1,0-3.9-0.9-5.4l-36.1-181l-51.2,3.2l-37.4,173.2c0,2.6-1.1,5.2-1.5,7.9
		c-0.4,2.6,0,5-1.1,7.7c-1.1,2.6,0,5,0,7.5c0,2.4,0,4.9,0,7.1l0,0c0-3.2,0-6.2,0-9c0-2.8,0-5.4,0-7.9c0-2.4,0-4.7,0-6.7
		c0-2.1,0-3.9,0-5.8l-36.5-169l-46.6,3.6l49.7,250.6l51.8,3.2l35.3-168.3c0-2.1,0-4.1,1.1-6.5c1.1-2.4,0-4.7,0.9-7.1
		c0.9-2.4,0-5,0-7.9c0-2.8,0-5.6,0-8.4l0,0c0,2.8,0,5.6,0,8.2c0,2.6,0,5.2,0,7.7c0,2.4,0,4.9,0.9,7.1c0.9,2.2,0,4.5,1.1,6.7
		l35.7,172.4l56.1,3.4L430.1,3035.5"/>
</g>
<g>
	<path class="st6" d="M4260.6,2885.9c-37.4,0-216.9,3.7-224.4,86V3359c5.6,84.1,187,87.9,224.4,87.9c37.4,0,224.4-3.7,224.4-91.6
		v-377.7C4485,2889.6,4298,2885.9,4260.6,2885.9z"/>
	<path class="st1" d="M4443.9,3276.7L4443.9,3276.7c-18.7,24.3-93.5,43-183.2,43c-102.8,0-187-24.3-187-54.2v89.8
		c0,29.9,84.1,54.2,187,54.2c102.8,0,187-24.3,187-54.2v-78.5C4447.6,3274.8,4445.7,3274.8,4443.9,3276.7z M4443.9,3151.4
		L4443.9,3151.4c-18.7,24.3-93.5,43-183.2,43c-102.8,0-187-24.3-187-54.2v89.8c0,29.9,84.1,54.2,187,54.2c102.8,0,187-24.3,187-54.2
		v-78.5C4447.6,3149.5,4445.7,3149.5,4443.9,3151.4z M4443.9,3024.3c-16.8,24.3-93.5,43-183.2,43c-102.8,0-187-24.3-187-54.2v89.8
		c0,29.9,84.1,54.2,187,54.2c102.8,0,187-24.3,187-54.2v-78.5C4446.6,3023.2,4444.9,3023.2,4443.9,3024.3
		C4443.9,3024.2,4443.9,3024.3,4443.9,3024.3z M4260.6,3031.7c102.8,0,187-24.3,187-54.2s-84.1-54.2-187-54.2
		c-102.8,0-187,24.3-187,54.2S4157.8,3031.7,4260.6,3031.7z"/>
	<path class="st6" d="M4167.1,2773.7l-467.5,82.3v620.8l467.5,82.3V2773.7z"/>
	<path class="st1" d="M3894.1,3186.9l26.2-104.7c0-1.9,1.9-3.7,1.9-5.6c-0.1-2.6,0.6-5.2,1.9-7.5v-15h1.9v15
		c-0.1,2.6,0.6,5.2,1.9,7.5c-0.2,2.1,0.4,4.1,1.9,5.6l26.2,104.7L3894.1,3186.9 M3961.5,2996.2l-65.4,3.7l-86,302.9l56.1,3.7
		l16.8-67.3l87.9,3.7l18.7,71.1l65.4,3.7L3961.5,2996.2"/>
</g>
<g>
	<path class="st7" d="M7810.5,3502.9c-9.6,0-18.8-3.9-25.4-10.8l-69-71.2c-6.6-6.9-9.6-16.4-8.2-25.8c2.2-13,13.3-22.7,26.6-23h29.5
		v-341.4c-0.1-17.9,14.3-32.4,32.2-32.5c0,0,0,0,0,0h192.2v93.5h-130.9v280.5h29.2c13-0.2,24.2,8.8,26.9,21.5
		c1.8,10-1.2,20.2-8.2,27.5l-69,71.2C7829.6,3499.2,7820.2,3503.1,7810.5,3502.9z M7857.5,3316v-93.5h130.9V2942h-29
		c-14.9-0.1-27-12.2-27.1-27.1c0-8,3.1-15.7,8.6-21.5l68.8-71.2c13.5-14.1,35.9-14.6,50-1.1c0.4,0.4,0.7,0.7,1.1,1.1l68.6,71.2
		c5,5.6,8,12.7,8.6,20.2v2.1c-0.1,14.7-12.1,26.5-26.7,26.4c-0.2,0-0.4,0-0.6,0h-28.8v342c-0.2,17.9-14.9,32.2-32.7,32c0,0,0,0,0,0
		H7857.5z"/>
	<path class="st8" d="M8035.1,2829.8c4.6,0,9,1.9,12.2,5.2l68.8,71.2c1.8,2.3,2.9,5.1,3.2,8l0,0c0.2,4.4-3.2,8.2-7.7,8.4
		c-0.2,0-0.4,0-0.6,0h-47.9V3284c-0.2,7.5-6.5,13.5-14,13.3c0,0,0,0,0,0h-173v-56.1h130.9v-317.9h-47.7c-4.8,0-8.6-3.8-8.6-8.6
		c0-0.1,0-0.1,0-0.2l0,0c0-3.1,1.2-6.1,3.4-8.4l68.8-71.2C8026.2,2831.6,8030.5,2829.8,8035.1,2829.8 M7969.7,3016.8v56.1h-130.9
		v317.9h47.9c4,0,7.5,2.8,8.4,6.7c0.6,3.8-0.7,7.7-3.4,10.5l-69,71.2c-6.4,6.7-17.1,6.9-23.8,0.5c-0.2-0.2-0.3-0.3-0.5-0.5l-69-71.2
		c-2.7-2.7-3.9-6.5-3.4-10.3c0.8-4,4.3-6.9,8.4-6.9h48.2v-360.1c-0.2-7.4,5.7-13.6,13.1-13.8c0.1,0,0.3,0,0.4,0H7969.7
		 M8035.1,2792.4c-14.7,0-28.7,5.9-38.9,16.5l-69,71.6c-8.8,9.2-13.6,21.4-13.6,34c0,25.4,20.4,46,45.8,46.2h10.3v18.7h-173.5
		c-28.2,0.1-51,23-50.9,51.2c0,0,0,0,0,0v322.7h-10.8c-22.1,0-41,15.7-45.2,37.4v2.2c-2.3,15.2,2.7,30.7,13.5,41.7l69,71.2
		c20.9,21.5,55.2,22,76.7,1.1c0.4-0.4,0.7-0.7,1.1-1.1l69.2-71.2c11-11.3,16.1-27.1,13.6-42.6v-2.4c-4.5-21.5-23.7-36.7-45.6-36.3
		h-10.5v-18.7h173c28.2,0.2,51.2-22.5,51.4-50.7c0,0,0,0,0,0v-323.3h10.1c25,0.4,45.6-19.5,46-44.5c0,0,0,0,0,0v-3.4
		c-0.6-10.9-4.6-21.4-11.4-29.9l-0.9-1.3l-1.1-1.1l-69.2-71.4C8063.8,2798.4,8049.8,2792.4,8035.1,2792.4z M7876.2,3110.3h93.5v93.5
		h-93.5V3110.3z"/>
	<path class="st9" d="M7782.7,2773.7l-467.5,82.3v621.5l467.5,81.5V2773.7z"/>
	<path class="st1" d="M7558.3,2995.7l-56.1,3.6V3315l56.1,3.6V2995.7"/>
</g>
<g id="one_48">
	<path class="st1" d="M5265,3446.8c-10.3,0-18.7-8.4-18.7-18.7v-149.6c0-10.3,8.4-18.7,18.7-18.7h74.8c20.7,0,37.4,16.7,37.4,37.4
		v112.2c0,20.7-16.7,37.4-37.4,37.4H5265z"/>
	<path class="st10" d="M5339.8,3278.5c10.3,0,18.7,8.4,18.7,18.7v112.2c0,10.3-8.4,18.7-18.7,18.7H5265v-149.6H5339.8
		 M5339.8,3241.2H5265c-20.7,0-37.4,16.7-37.4,37.4v149.6c0,20.7,16.7,37.4,37.4,37.4h74.8c31,0,56.1-25.1,56.1-56.1v-112.2
		C5395.9,3266.3,5370.8,3241.2,5339.8,3241.2z"/>
	<path class="st1" d="M5265,3258.7c-9.7,0-17.6-7.9-17.6-17.6v-130.9c0-9.7,7.9-17.6,17.6-17.6h75.9c19.3,0,35,15.7,35,35v95.9
		c0,19.3-15.7,35-35,35L5265,3258.7z"/>
	<path class="st10" d="M5340.9,3110.3c9.7,0,17.6,7.9,17.6,17.6v95.9c0,9.7-7.9,17.6-17.6,17.6H5265v-131.1H5340.9 M5340.9,3075.3
		H5265c-19.3,0-35,15.7-35,35v130.9c0,19.3,15.7,35,35,35h75.9c29,0,52.5-23.5,52.5-52.5c0,0,0,0,0,0v-95.7
		C5393.4,3098.8,5369.9,3075.3,5340.9,3075.3C5340.9,3075.3,5340.9,3075.3,5340.9,3075.3z"/>
	<path class="st1" d="M4928.5,3465.5c-10.3,0-18.7-8.4-18.7-18.7v-560.9c0-10.3,8.4-18.7,18.7-18.7h355.2c10.3,0,18.7,8.4,18.7,18.7
		v18.7h37.4c20.7,0,37.4,16.7,37.4,37.4v112.2c0,20.7-16.7,37.4-37.4,37.4h-37.4v355.2c0,10.3-8.4,18.7-18.7,18.7H4928.5z"/>
	<path class="st10" d="M5283.7,2885.9v37.4h56.1c10.3,0,18.7,8.4,18.7,18.7v112.2c0,10.3-8.4,18.7-18.7,18.7h-56.1v373.9h-355.2
		v-560.9H5283.7 M5283.7,2848.5h-355.2c-20.7,0-37.4,16.7-37.4,37.4v560.9c0,20.7,16.7,37.4,37.4,37.4h355.2
		c20.7,0,37.4-16.7,37.4-37.4v-336.5h18.7c31,0,56.1-25.1,56.1-56.1V2942c0-31-25.1-56.1-56.1-56.1h-18.7
		C5321.1,2865.3,5304.3,2848.5,5283.7,2848.5z"/>
	<rect x="4984.5" y="2960.7" class="st10" width="224.4" height="37.4"/>
	<rect x="4984.5" y="3035.5" class="st10" width="224.4" height="37.4"/>
	<rect x="4984.5" y="3110.3" class="st10" width="224.4" height="37.4"/>
	<rect x="4984.5" y="3185.1" class="st10" width="224.4" height="37.4"/>
	<rect x="4984.5" y="3259.9" class="st10" width="224.4" height="37.4"/>
	<rect x="4984.5" y="3334.6" class="st10" width="224.4" height="37.4"/>
	<path class="st11" d="M5078,2773.8l-467.4,81.9v621.5L5078,3559V2773.8z"/>
	<path class="st1" d="M4947.2,2998.1l-56.1,3.6v175.7c0,5.4,0,10.3,0,14.8s0,8.4,0,11.6c0,3.6,0,6.9,0,9.7s0,5.2,0,7.1l0,0l-3.7-7.9
		l-3.4-6.9l-3-6.2l-2.8-5.2l-97.4-187l-57.2,3.6l-0.7,298.4l54.8,3l1.3-166.8c0-5.4,0-10.4,0-15.1c0-4.7,0-9.2,0-13.3
		c0-4.1,0-7.9,0-11.2c0-3.4,0-6.5,0-9.3l0,0l2.1,4.9l2.6,5.8c0.9,2.1-2.6,4.3-1.5,6.7l3.9,7.5l101.7,197.8l59.8,3.7v-324.9"/>
</g>
<g>
	<path class="st12" d="M6303.4,2851.9h-215.3c-13.6,0-24.6,11-24.6,24.6v76.3h-166.1v516.1h318c13.6,0,24.6-11,24.6-24.6v-131.8
		h63.3c13.6,0,24.6-11,24.6-24.6v-411.5C6328,2862.9,6317,2851.9,6303.4,2851.9z"/>
	<polygon class="st1" points="6213.2,3441.9 5931.3,3441.9 5931.3,3392.4 6156,3392.4 6156,3358.7 5931.3,3358.7 5931.3,3306.6 
		6156,3306.6 6156,3273 5931.3,3273 5931.3,3220.9 6156,3220.9 6156,3187.3 5931.3,3187.3 5931.3,3140.2 6156,3140.2 6156,3032.6 
		5931.3,3032.6 5931.3,2979.6 6213.2,2979.6 	"/>
	<path class="st1" d="M6240.1,3285.6v-317.3l-150.9-82.9c-3.6-2-2.2-7.6,1.9-7.6h212v407.8L6240.1,3285.6L6240.1,3285.6z"/>
	<path class="st13" d="M5967.8,2773.8l-467.4,81.9v621.4l467.4,81.9V2773.8z"/>
	<path class="st1" d="M5687.4,3156.4V3056h26.2c7.5-0.4,15.2,0.3,22.5,2.2c6,1.7,11.6,4.7,16.3,9c4.6,4.2,8,9.6,9.9,15.5
		c2.4,7.2,3.5,14.7,3.4,22.3c0,7.5-1.1,14.8-3.4,21.9c-3.9,12.5-13.6,22.2-26.2,26c-7.3,2.2-14.8,3.3-22.5,3.1h-24.8 M5724.7,2998.1
		l-93.4,5.4v317.8l56.1,3.4v-113.3h31.6c8.2,0.3,16.4-0.1,24.5-1.1c7.7-1.1,15.4-3,22.8-5.6c7.1-2.5,14-5.8,20.3-9.7
		c6.7-3.9,13-8.6,18.7-14.1c5.2-5.1,9.8-10.6,13.8-16.6c3.9-5.8,7.3-12.1,9.9-18.7c2.7-6.9,4.7-14.1,6-21.5
		c3.9-23.6,2.1-47.9-5.3-70.7c-4.3-12.5-11.7-23.7-21.5-32.5c-10.1-9-22.2-15.3-35.3-18.7
		C5757.2,2998.3,5740.9,2996.9,5724.7,2998.1"/>
</g>
<g>
	<path class="st14" d="M7217.5,3092.5c-9-21.4-21.8-40.7-38-57.5c-16-16.6-34.5-29.7-54.8-39c-21.2-9.7-43.2-14.6-65.5-14.6h-24.9
		h-21.4l-41.9-54.2c-6.2-8-14.3-14.6-23.4-19c-8.8-4.2-18.6-6.5-28.4-6.5c-14.6,0-28.4,4.7-39.9,13.6
		c-26.4,20.4-32.9,57.2-16.2,85.2c-22,12.1-41.8,29-57.6,49.7c-12.2,15.9-21.8,33.4-28.4,52.1c-7,19.7-10.5,40.3-10.5,61.1
		c0,24.6,4.9,48.6,14.5,71.4c9.1,21.5,22,41,38.3,58c16.2,16.7,34.7,30,55.2,39.3c21.4,9.8,43.6,14.7,66,14.7h24.9h24.2l40.1,52
		c6.1,7.9,14,14.3,22.9,18.6c8.6,4.1,18.2,6.3,27.8,6.3c14.3,0,27.8-4.6,39.1-13.3c26.3-20.3,32.4-57.1,15.1-84.6
		c22.3-12,42.4-29.1,58.5-50c12.1-15.8,21.6-33.2,28.2-51.7c6.9-19.6,10.4-40,10.4-60.6C7231.9,3138.9,7227.1,3115.1,7217.5,3092.5z
		 M7105.9,3164c0,32.7-26.5,59.3-59.3,59.3l-92.1,0c-32.7,0-59.3-26.5-59.3-59.3v0c0-32.7,26.5-59.3,59.3-59.3l92.1,0
		C7079.3,3104.7,7105.9,3131.2,7105.9,3164L7105.9,3164z"/>
	<path class="st1" d="M7205.8,3163.3c0-86.1-71.4-155.9-146.6-155.9h-24.9l0,0l76.1,98.6c0.3,0.5,0.6,0.9,1,1.4
		c12.9,15,20.6,34.6,20.6,55.9c0,47.5-38.5,86.1-86.1,86.1h-0.5c-0.1,0-0.2,0-0.3,0l-97.5,0l39.9,51.6l14,18.2l0,0l49,63.5
		c12.8,16.6,36.6,19.6,53.1,6.8c16.6-12.8,19.6-36.6,6.8-53.1l-17-22.1C7154.7,3297.2,7205.8,3236.1,7205.8,3163.3z"/>
	<path class="st1" d="M6794,3163.3c0,86.1,71.4,155.9,146.6,155.9h24.9l0,0l-76.1-98.6c-0.3-0.5-0.6-0.9-1-1.4
		c-12.9-15-20.6-34.6-20.6-55.9c0-47.5,38.5-86.1,86.1-86.1h0.5c0.1,0,0.2,0,0.3,0l97.5,0l-39.9-51.6l-14-18.2l0,0l-49-63.5
		c-12.8-16.6-36.6-19.6-53.1-6.8c-16.6,12.8-19.6,36.6-6.8,53.1l17,22.1C6845.1,3029.4,6794,3090.5,6794,3163.3z"/>
	<g>
		<polygon class="st14" points="6418.2,2858.8 6418.2,3473.9 6887.4,3559.1 6887.4,2773.7 		"/>
		<polygon class="st1" points="6755.1,3333.3 6559.4,3322 6559.4,2985.1 6628.1,2979.4 6628.1,3260.4 6755.1,3266.1 		"/>
	</g>
</g>
<g id="ppt_48">
	<path class="st1" d="M2270.5,2885.9h355.3c10.3,0,18.7,8.4,18.7,18.7v523.6c0,10.3-8.4,18.7-18.7,18.7h-355.3
		c-10.3,0-18.7-8.4-18.7-18.7v-523.6C2251.8,2894.2,2260.2,2885.9,2270.5,2885.9z"/>
	<path class="st15" d="M2625.8,2904.6v523.6h-355.3v-523.6H2625.8 M2625.8,2867.2h-355.3c-20.7,0-37.4,16.7-37.4,37.4v523.6
		c0,20.7,16.7,37.4,37.4,37.4h355.3c20.7,0,37.4-16.7,37.4-37.4v-523.6C2663.2,2883.9,2646.5,2867.2,2625.8,2867.2z"/>
	<rect x="2326.6" y="3241.2" class="st15" width="224.4" height="37.4"/>
	<rect x="2326.6" y="3316" class="st15" width="224.4" height="37.4"/>
	<path class="st15" d="M2420.1,2979.4c-62,0-112.2,50.2-112.2,112.2c0,62,50.2,112.2,112.2,112.2c62,0,112.2-50.2,112.2-112.2
		h-112.2V2979.4z"/>
	<path class="st15" d="M2438.8,2960.7v112.2H2551C2551,3010.9,2500.8,2960.7,2438.8,2960.7z"/>
	<path class="st16" d="M2345.3,2773.7l-467.5,81.9v621.6l467.5,81.9V2773.7z"/>
	<path class="st1" d="M2064.8,3156.5V3056h26.2c7.6-0.4,15.1,0.3,22.4,2.2c6.1,1.7,11.6,4.7,16.3,9c4.5,4.3,8,9.6,9.9,15.5
		c2.4,7.2,3.5,14.7,3.4,22.3c0,7.4-1.1,14.8-3.4,21.9c-3.9,12.5-13.7,22.2-26.2,26c-7.3,2.2-14.8,3.3-22.4,3.2h-24.9 M2102.2,2998.1
		l-93.5,5.4v317.9l56.1,3.4v-113.3h31.6c8.2,0.3,16.4-0.1,24.5-1.1c7.8-1.1,15.4-3,22.8-5.6c7.1-2.5,14-5.8,20.4-9.7
		c6.7-3.9,13-8.7,18.7-14c5.2-5.1,9.8-10.6,13.8-16.6c3.9-5.9,7.3-12.1,9.9-18.7c2.7-7,4.7-14.2,6-21.5c3.9-23.6,2.1-47.9-5.2-70.7
		c-4.3-12.5-11.7-23.7-21.5-32.5c-10.1-9-22.2-15.4-35.3-18.7C2134.7,2998.3,2118.4,2996.9,2102.2,2998.1"/>
</g>
<g id="_48_1_">
	<path class="st1" d="M3181.4,2960.7h355.3c10.3,0,18.7,8.4,18.7,18.7v374c0,10.3-8.4,18.7-18.7,18.7h-355.3
		c-10.3,0-18.7-8.4-18.7-18.7v-374C3162.7,2969,3171.1,2960.7,3181.4,2960.7z"/>
	<path class="st17" d="M3536.7,2979.4v374h-355.3v-374H3536.7 M3536.7,2942h-355.3c-20.7,0-37.4,16.7-37.4,37.4v374
		c0,20.7,16.7,37.4,37.4,37.4h355.3c20.7,0,37.4-16.7,37.4-37.4v-374C3574.1,2958.7,3557.4,2942,3536.7,2942z"/>
	<path class="st18" d="M3337.2,3210.1L3087.9,2976v-15.3h37.4l223.3,209.6c1.2,1.1,3,1.1,4.1,0l202.7-190.9v50.7l-191.1,179.5
		C3356.8,3216.7,3345.1,3216.9,3337.2,3210.1z"/>
	<path class="st18" d="M3256.2,2773.7l-467.5,81.9v621.6l467.5,81.9V2773.7z"/>
	<path class="st1" d="M3006.6,3256.1c-4.7-0.2-9.3-0.8-13.8-2.1c-4.3-1.2-8.5-2.9-12.3-5c-4-2.2-7.7-4.9-11-8c-3.5-3.3-6.7-7-9.5-11
		c-3.2-4.6-6-9.5-8.2-14.6c-2.5-5.5-4.5-11.2-6-17c-1.6-6.1-2.8-12.4-3.6-18.7c-0.8-7.2-1.2-14.4-1.1-21.7c0-6.8,0.4-13.6,1.1-20.4
		c0.6-6.3,1.7-12.5,3.2-18.7c1.4-5.6,3.2-11.1,5.4-16.5c2.1-5.1,4.6-9.9,7.5-14.6c2.8-4.5,6.2-8.7,9.9-12.5
		c3.5-3.5,7.4-6.6,11.6-9.2c4.2-2.5,8.7-4.5,13.5-5.8c4.9-1.4,10-2.1,15.1-2.2c4.8-0.2,9.7,0.2,14.4,1.1c4.5,0.9,8.8,2.4,12.9,4.5
		c4.1,2.1,8,4.7,11.4,7.9c3.7,3.3,7.1,7.1,9.9,11.2c3.2,4.6,6,9.6,8.2,14.8c2.5,5.7,4.5,11.6,6,17.6c1.7,6.8,2.8,13.6,3.6,20.6
		c0.8,7.8,1.2,15.6,1.1,23.4c0,7.6-0.4,15.2-1.3,22.8c-0.8,6.8-2,13.4-3.7,20c-1.6,5.9-3.7,11.7-6.4,17.2c-2.4,5.1-5.4,9.9-8.8,14.4
		c-3,3.9-6.4,7.4-10.1,10.5c-7.1,5.8-15.5,9.7-24.5,11.4c-4.7,0.8-9.5,1.2-14.2,0.9 M3009.8,2998.1c-9.7,0.5-19.4,2-28.8,4.5
		c-8.8,2.3-17.2,5.7-25.2,9.9c-7.9,4.2-15.2,9.3-21.9,15.1c-6.9,6.1-13.2,12.8-18.7,20.2c-5.5,7.5-10.2,15.5-14.2,23.9
		c-4.2,8.6-7.6,17.5-10.3,26.7c-2.9,10-5,20.2-6.4,30.5c-1.4,10.6-2,21.3-2.1,32c0,10.6,0.6,21.1,2.1,31.6
		c1.3,9.7,3.5,19.3,6.4,28.6c2.7,8.8,6.1,17.3,10.3,25.4c4.3,8.1,9.3,15.7,15,22.8c5.6,6.8,11.9,13.1,18.7,18.7
		c13,11,28.2,18.9,44.7,23.2c8.8,2.3,17.7,3.6,26.7,4.1c9.4,0.6,18.8,0.2,28.1-1.1c8.8-1.3,17.5-3.6,25.8-6.9
		c8.3-3.3,16.3-7.7,23.6-12.9c7.6-5.4,14.7-11.7,20.9-18.7c6.6-7.4,12.5-15.5,17.4-24.1c5-9.3,9-19.1,12-29.2
		c3.4-10.5,5.9-21.4,7.5-32.4c1.8-11.7,2.7-23.5,2.8-35.3c0-11.8-0.8-23.6-2.4-35.3c-1.5-10.7-4-21.2-7.3-31.4
		c-3.1-9.5-7.2-18.8-12.2-27.5c-4.7-8.4-10.3-16.2-16.6-23.4c-6-7-12.8-13.2-20.2-18.7c-7.1-5.1-14.7-9.3-22.8-12.5
		c-8.1-3.2-16.5-5.5-25.1-6.7C3028.3,2997.9,3019,2997.5,3009.8,2998.1"/>
</g>
</svg>
