<svg xmlns="http://www.w3.org/2000/svg" height="800" width="1200" xml:space="preserve" y="0" x="0" id="Calque_1" version="1.1" viewBox="-44.01 -83.675 381.42 502.05"><style id="style357" type="text/css">.st0{fill:#b9c8d0}.st2{fill:#abb8c0}.st3{fill:#81989f}.st5{fill:#3c9443}</style><g transform="translate(-1.5)" id="XMLID_5_"><path d="M30.7 241.4C12.5 232.2 1.5 220.2 1.5 207v68.8c0 20.7 27.3 38.7 67.2 47.4v-68.8c-14.6-3.2-27.5-7.6-38-13z" class="st0" id="XMLID_14_"/><path d="M39.1 168.8c-3.3-1.4-6.5-2.8-9.4-4.4-17.5-9.2-28.1-21-28.1-33.9v67.7c0 1.5.2 2.9.4 4.4 2.6 13.6 16.8 25.7 38.4 34.4 8.4 3.4 17.9 6.3 28.3 8.6v-67.8c-10.9-2.3-20.9-5.4-29.6-9z" class="st0" id="XMLID_10_"/><path d="M123.3 0C56 0 1.5 23.7 1.5 53c0 13.1 11 25.1 29.1 34.4 3 1.5 6.2 3 9.6 4.4 8.4 3.4 18 6.3 28.4 8.6L92 79.3l10.8-9.8L121 53l53.2-48.2C158.7 1.7 141.5 0 123.3 0z" id="XMLID_3_" fill="#8ea5af"/><path d="M40.3 91.8c-3.4-1.4-6.6-2.8-9.6-4.4C12.5 78.1 1.5 66.1 1.5 53v68.7c0 1.5.2 2.9.4 4.4C4.4 139.4 18.1 151.3 39 160c3.8 1.6 7.7 3 11.9 4.4 5.6 1.8 11.5 3.4 17.7 4.7v-68.8c-10.3-2.2-19.9-5.1-28.3-8.5z" class="st0" id="XMLID_4_"/><path d="M144.1 275.9c-1.2-5.3-1.9-10.8-2-16.4-6.1.4-12.4.6-18.9.6-10 0-19.7-.5-29-1.5-9-1-17.5-2.3-25.6-4.1v68.8c1.3.3 2.6.6 4 .8 15.4 3.1 32.6 4.8 50.6 4.8 19.7 0 38.3-2.1 54.8-5.7a76.595 76.595 0 01-33.9-47.3z" class="st2" id="XMLID_9_"/><path d="M177.7 5.6c-1.2-.3-2.3-.5-3.5-.7L121 53l-18.2 16.5L92 79.3l-23.3 21.1c16.4 3.6 35 5.6 54.6 5.6 7.4 0 14.6-.3 21.6-.8 23.5-1.8 44.7-6.6 61.5-13.4 3.4-1.4 6.6-2.8 9.6-4.4 18.1-9.3 29-21.3 29-34.4 0-20.8-27.4-38.7-67.3-47.4z" class="st3" id="XMLID_2_"/><path d="M215.9 87.4c-3 1.5-6.2 3-9.6 4.4-16.8 6.8-37.9 11.6-61.5 13.4-7 .5-14.2.8-21.6.8-19.6 0-38.2-2-54.6-5.6v68.8c16 3.5 34.1 5.5 53.2 5.6h1.4c27.1 0 52.1-3.9 72.3-10.4 4.2-1.4 8.2-2.8 11.9-4.4 20.8-8.7 34.6-20.6 37.1-33.9.3-1.4.4-2.9.4-4.4V53c.1 13.1-10.8 25.1-29 34.4z" class="st2" id="XMLID_7_"/><g id="XMLID_1_"><path d="M244.6 126.1c-2.5 13.3-16.2 25.2-37.1 33.9-3.8 1.6-7.7 3-11.9 4.4-20.2 6.5-45.2 10.4-72.3 10.4h-1.4c-19.1-.1-37.2-2.1-53.2-5.6-6.2-1.4-12.1-2.9-17.7-4.7-4.2-1.4-8.2-2.8-11.9-4.4-20.9-8.8-34.6-20.7-37.1-34-.3-1.4-.4-2.9-.4-4.4v8.8c0 12.9 10.6 24.7 28.1 33.9 2.9 1.5 6.1 3 9.4 4.4 8.7 3.6 18.7 6.7 29.6 9.1 15.2 3.3 32.3 5.3 50.3 5.6h4.3c32.7 0 62.3-5.6 84.2-14.7 3.3-1.4 6.5-2.8 9.4-4.4 17.5-9.2 28.1-21 28.1-33.9v-8.8c0 1.5-.1 3-.4 4.4z" class="st3" id="XMLID_8_"/><path d="M244.6 202.6c-2.4 12.7-15 24.1-34.3 32.7-1.3.6-2.7 1.2-4.1 1.7-3 1.2-6 2.3-9.3 3.4-12.4 4.1-26.7 7.2-42.2 9-4 .5-8.1.8-12.3 1.1-6.3.4-12.7.7-19.2.7-9 0-17.8-.4-26.2-1.2-10-1-19.5-2.4-28.4-4.4-10.4-2.3-19.9-5.2-28.3-8.6-21.5-8.7-35.8-20.8-38.3-34.4-.3-1.4-.4-2.9-.4-4.4v8.8c0 13.1 11 25.1 29.2 34.4 10.5 5.3 23.4 9.8 38 13 8.1 1.8 16.6 3.1 25.6 4.1 9.3 1 19 1.5 29 1.5 6.4 0 12.7-.2 18.9-.6 4.1-.3 8.1-.6 12-1.1 15.7-1.8 30.2-4.9 42.8-9.1 6.9-2.3 13.3-4.9 18.9-7.8.9-.5 1.8-1 2.7-1.4 16.5-9 26.4-20.5 26.4-33v-8.7c0 .5-.1.9-.1 1.4-.1 1-.2 2-.4 2.9z" class="st3" id="XMLID_19_"/></g><path d="M216.9 164.4a138 138 0 01-9.4 4.4c-21.9 9.1-51.5 14.7-84.2 14.7H119c-18.1-.3-35.1-2.3-50.3-5.6v67.8c8.9 1.9 18.4 3.4 28.4 4.4 8.4.8 17.2 1.2 26.2 1.2 6.5 0 13-.2 19.2-.7 4.2-.3 8.3-.7 12.3-1.1 15.5-1.8 29.8-4.9 42.2-9 3.2-1.1 6.3-2.2 9.3-3.4 1.4-.6 2.7-1.1 4.1-1.7 19.3-8.6 31.9-20 34.3-32.7.2-1 .3-2 .4-3 0-.5.1-.9.1-1.4v-67.8c-.2 12.9-10.7 24.7-28.3 33.9z" class="st2" id="XMLID_16_"/><g id="XMLID_54_"><circle r="76.4" cy="258.3" cx="218.5" id="XMLID_85_" fill="#e5e9ec"/><g id="XMLID_78_"><path d="M218.5 197.7c34.9 0 63.3 27.8 64.3 62.5v-1.9c0-35.6-28.8-64.4-64.4-64.4-35.6 0-64.4 28.8-64.4 64.4v1.9c1.2-34.6 29.6-62.5 64.5-62.5z" class="st5" id="XMLID_82_"/><path d="M218.5 322.7c34.9 0 63.3-27.8 64.3-62.5-1-34.7-29.4-62.5-64.3-62.5s-63.3 27.8-64.3 62.5c1 34.7 29.4 62.5 64.3 62.5z" id="XMLID_79_" fill="#45ac4e"/></g><path class="st5" id="XMLID_67_" d="M196.9 256v36l54.5-30.5-54.5-30.5z"/><path id="XMLID_58_" fill="#fff" d="M196.9 252.8v36.1l54.5-30.6-54.5-30.5z"/></g></g></svg>