<?xml version="1.0" encoding="utf-8"?>
<!-- Generator: Adobe Illustrator 25.0.1, SVG Export Plug-In . SVG Version: 6.00 Build 0)  -->
<svg version="1.0" id="katman_1" xmlns="http://www.w3.org/2000/svg" xmlns:xlink="http://www.w3.org/1999/xlink" x="0px" y="0px"
	 viewBox="0 0 3236 2372" style="enable-background:new 0 0 3236 2372;" xml:space="preserve">
<style type="text/css">
	.st0{fill:#0085CA;}
</style>
<g>
	<path class="st0" d="M2530,2058.7V313.3c0-28.2-22.2-56.5-55.6-56.5H761.6c-33.4,0-55.6,22.6-55.6,56.5v1745.3
		c0,28.3,22.3,56.5,55.6,56.5h1712.8C2507.7,2115.1,2530,2086.9,2530,2058.7L2530,2058.7z M2457.7,2041.7H778.3V330.3h1679.4V2041.7
		z"/>
	<path class="st0" d="M1401.1,1765c250.2,0,411.5-141.3,411.5-508.4V635.3h-183.5v638.2c0,242.9-94.5,322-228,322
		s-216.9-79.1-216.9-322V640.9H989.6v621.4C989.6,1623.8,1150.9,1765,1401.1,1765L1401.1,1765z M2157.4,787.8
		c66.8,0,116.8-45.2,116.8-107.3c0-67.8-50-113-116.8-113c-66.8,0-116.8,45.2-116.8,113C2040.6,742.6,2090.7,787.8,2157.4,787.8z
		 M2251.9,934.6h-189.1V1765h189.1V934.6z"/>
</g>
</svg>
